<svg id="fish_x5F_captured" enable-background="new 0 0 300 300" height="512" viewBox="0 0 300 300" width="512" xmlns="http://www.w3.org/2000/svg"><circle cx="144" cy="138" fill="#edebdc" r="92"/><g fill="#4c241d"><path d="m169.168 56.199c-1.016 0-2.031-.383-2.811-1.152l-11.389-11.242c-1.572-1.555-1.588-4.086-.037-5.656 1.555-1.574 4.088-1.59 5.658-.039l11.389 11.242c1.572 1.555 1.588 4.086.037 5.656-.783.793-1.816 1.191-2.847 1.191z"/><path d="m157.854 56.273c-1.016 0-2.029-.383-2.809-1.152-1.574-1.551-1.59-4.086-.039-5.656l11.238-11.391c1.553-1.57 4.084-1.594 5.656-.039 1.574 1.551 1.59 4.086.039 5.656l-11.238 11.391c-.783.793-1.814 1.191-2.847 1.191z"/><path d="m73.168 108.199c-1.016 0-2.031-.383-2.811-1.152l-11.388-11.242c-1.572-1.555-1.588-4.086-.037-5.656 1.555-1.574 4.088-1.59 5.658-.039l11.389 11.242c1.572 1.555 1.588 4.086.037 5.656-.784.793-1.817 1.191-2.848 1.191z"/><path d="m61.854 108.273c-1.016 0-2.029-.383-2.809-1.152-1.574-1.551-1.59-4.086-.039-5.656l11.238-11.391c1.553-1.57 4.084-1.594 5.656-.039 1.574 1.551 1.59 4.086.039 5.656l-11.238 11.391c-.783.793-1.814 1.191-2.847 1.191z"/><path d="m52.006 62c-6.586 0-11.963-5.332-12.006-11.918-.043-6.617 5.303-12.035 11.92-12.082h.074c6.586 0 11.963 5.332 12.006 11.918.043 6.617-5.303 12.035-11.92 12.082-.023 0-.049 0-.074 0zm-.008-16c-.01 0-.018 0-.025 0-2.203.016-3.988 1.824-3.973 4.027.014 2.196 1.809 3.973 4.002 3.973h.025c2.203-.016 3.988-1.824 3.973-4.027-.014-2.196-1.809-3.973-4.002-3.973z"/><path d="m188.006 114c-6.586 0-11.963-5.332-12.006-11.918-.043-6.617 5.303-12.035 11.92-12.082h.074c6.586 0 11.963 5.332 12.006 11.918.043 6.617-5.303 12.035-11.92 12.082-.023 0-.049 0-.074 0zm-.008-16c-.01 0-.018 0-.025 0-2.203.016-3.988 1.824-3.973 4.027.014 2.195 1.809 3.973 4.002 3.973h.025c2.203-.016 3.988-1.824 3.973-4.027-.014-2.196-1.809-3.973-4.002-3.973z"/><path d="m252.006 58c-6.586 0-11.963-5.332-12.006-11.918-.043-6.617 5.303-12.035 11.92-12.082h.074c6.586 0 11.963 5.332 12.006 11.918.043 6.617-5.303 12.035-11.92 12.082-.023 0-.049 0-.074 0zm-.008-16c-.01 0-.018 0-.025 0-2.203.016-3.988 1.824-3.973 4.027.014 2.195 1.809 3.973 4.002 3.973h.025c2.203-.016 3.988-1.824 3.973-4.027-.014-2.196-1.809-3.973-4.002-3.973z"/><circle cx="95.549" cy="53.599" r="4.292"/><circle cx="235.549" cy="97.599" r="4.292"/><circle cx="131.549" cy="101.599" r="4.292"/><path d="m272 146h-244c-2.209 0-4-1.789-4-4s1.791-4 4-4h244c2.209 0 4 1.789 4 4s-1.791 4-4 4z"/><path d="m56 162c-1.26 0-2.445-.594-3.199-1.602l-24-32c-1.326-1.766-.969-4.273.799-5.598 1.775-1.324 4.277-.969 5.6.801l20.8 27.731 20.801-27.73c1.326-1.77 3.832-2.125 5.6-.801s2.125 3.832.799 5.598l-24 32c-.755 1.007-1.94 1.601-3.2 1.601z"/><path d="m56 266c-2.209 0-4-1.789-4-4v-104c0-2.211 1.791-4 4-4s4 1.789 4 4v104c0 2.211-1.791 4-4 4z"/><path d="m244 162c-1.26 0-2.445-.594-3.199-1.602l-24-32c-1.326-1.766-.969-4.273.799-5.598 1.775-1.324 4.279-.969 5.6.801l20.8 27.731 20.801-27.73c1.326-1.77 3.832-2.125 5.6-.801s2.125 3.832.799 5.598l-24 32c-.755 1.007-1.94 1.601-3.2 1.601z"/><path d="m244 266c-2.209 0-4-1.789-4-4v-104c0-2.211 1.791-4 4-4s4 1.789 4 4v104c0 2.211-1.791 4-4 4z"/></g><path d="m172.364 177.75c0 26.711-20.364 48.364-20.364 48.364s-20.364-21.653-20.364-48.364 20.364-48.363 20.364-48.363 20.364 21.653 20.364 48.363z" fill="#9dc1e4"/><path d="m152 230.113c-1.104 0-2.158-.457-2.914-1.258-.875-.934-21.449-23.129-21.449-51.105s20.574-50.172 21.449-51.105c1.512-1.602 4.316-1.602 5.828 0 .875.934 21.449 23.129 21.449 51.105s-20.574 50.172-21.449 51.105c-.756.801-1.81 1.258-2.914 1.258zm.006-94.488c-5.391 6.93-16.369 23.355-16.369 42.125 0 18.832 10.969 35.211 16.357 42.125 5.391-6.93 16.369-23.355 16.369-42.125 0-18.832-10.968-35.211-16.357-42.125z" fill="#4c241d"/><path d="m170.127 230.896c5.964 5.964 5.4 16.199 5.4 16.199s-10.235.565-16.199-5.4-5.4-16.199-5.4-16.199 10.235-.564 16.199 5.4z" fill="#9dc1e4"/><path d="m174.826 251.109c-2.961 0-12.256-.512-18.326-6.586-7.146-7.145-6.594-18.758-6.566-19.246.113-2.039 1.738-3.664 3.775-3.773.484-.027 12.098-.582 19.246 6.562 7.146 7.145 6.594 18.758 6.566 19.246-.113 2.035-1.738 3.664-3.773 3.773-.074.005-.398.024-.922.024zm-16.648-21.363c.408 2.84 1.436 6.578 3.979 9.121s6.279 3.57 9.121 3.977c-.408-2.84-1.434-6.574-3.979-9.121-2.543-2.539-6.279-3.567-9.121-3.977z" fill="#4c241d"/><path d="m133.873 230.896c-5.964 5.964-5.4 16.199-5.4 16.199s10.235.565 16.199-5.4 5.4-16.199 5.4-16.199-10.235-.564-16.199 5.4z" fill="#9dc1e4"/><path d="m129.176 251.109c-.525 0-.85-.02-.924-.023-2.035-.109-3.66-1.738-3.773-3.773-.027-.488-.58-12.102 6.566-19.246 7.148-7.145 18.766-6.59 19.246-6.562 2.037.109 3.662 1.734 3.775 3.773.027.488.58 12.102-6.566 19.246-6.07 6.07-15.365 6.585-18.324 6.585zm7.525-17.386c-2.543 2.543-3.57 6.281-3.979 9.121 2.84-.406 6.576-1.434 9.121-3.977 2.543-2.543 3.57-6.277 3.979-9.121-2.842.41-6.578 1.434-9.121 3.977z" fill="#4c241d"/><circle cx="152" cy="154.841" fill="#4c241d" r="3.918"/><path d="m220 168c0 20.987-16 38-16 38s-16-17.013-16-38 16-38 16-38 16 17.013 16 38z" fill="#c1dbdc"/><path d="m204 210c-1.104 0-2.158-.457-2.914-1.258-.697-.742-17.086-18.426-17.086-40.742s16.389-40 17.086-40.742c1.512-1.602 4.316-1.602 5.828 0 .697.742 17.086 18.426 17.086 40.742s-16.389 40-17.086 40.742c-.756.801-1.81 1.258-2.914 1.258zm.006-73.691c-4.342 5.781-12.006 17.937-12.006 31.691 0 13.809 7.652 25.926 11.994 31.691 4.342-5.781 12.006-17.937 12.006-31.691 0-13.809-7.652-25.926-11.994-31.691z" fill="#4c241d"/><path d="m218.243 209.757c4.686 4.686 4.243 12.728 4.243 12.728s-8.042.444-12.728-4.243c-4.686-4.686-4.243-12.728-4.243-12.728s8.041-.443 12.728 4.243z" fill="#c1dbdc"/><path d="m221.807 226.5c-2.631 0-9.928-.477-14.877-5.43-5.785-5.785-5.463-14.77-5.408-15.777.113-2.035 1.738-3.66 3.773-3.77 1.002-.055 9.992-.379 15.775 5.406 5.785 5.785 5.463 14.77 5.408 15.777-.113 2.035-1.738 3.66-3.773 3.77-.144.008-.455.024-.898.024zm.677-4.016h.039zm-12.566-12.566c.42 1.934 1.217 4.043 2.668 5.496 1.451 1.449 3.562 2.25 5.496 2.668-.42-1.934-1.217-4.043-2.668-5.496-1.451-1.449-3.562-2.25-5.496-2.668z" fill="#4c241d"/><path d="m189.757 209.757c-4.686 4.686-4.243 12.728-4.243 12.728s8.042.444 12.728-4.243c4.686-4.686 4.243-12.728 4.243-12.728s-8.041-.443-12.728 4.243z" fill="#c1dbdc"/><path d="m186.193 226.5c-.443 0-.754-.016-.898-.023-2.035-.109-3.66-1.734-3.773-3.77-.055-1.008-.377-9.992 5.408-15.777 5.783-5.785 14.779-5.457 15.775-5.406 2.035.109 3.66 1.734 3.773 3.77.055 1.008.377 9.992-5.408 15.777-4.949 4.952-12.246 5.429-14.877 5.429zm11.889-16.582c-1.932.418-4.045 1.215-5.496 2.668-1.451 1.453-2.25 3.57-2.668 5.496 1.932-.418 4.045-1.215 5.496-2.668s2.25-3.57 2.668-5.496zm-8.324-.16h.039z" fill="#4c241d"/><circle cx="204" cy="150" fill="#4c241d" r="3.079"/><path d="m116 168c0 20.987-16 38-16 38s-16-17.013-16-38 16-38 16-38 16 17.013 16 38z" fill="#c1dbdc"/><path d="m100 210c-1.104 0-2.158-.457-2.914-1.258-.697-.742-17.086-18.426-17.086-40.742s16.389-40 17.086-40.742c1.512-1.602 4.316-1.602 5.828 0 .697.742 17.086 18.426 17.086 40.742s-16.389 40-17.086 40.742c-.756.801-1.81 1.258-2.914 1.258zm.006-73.691c-4.342 5.781-12.006 17.937-12.006 31.691 0 13.809 7.652 25.926 11.994 31.691 4.342-5.781 12.006-17.937 12.006-31.691 0-13.809-7.652-25.926-11.994-31.691z" fill="#4c241d"/><path d="m114.243 209.757c4.686 4.686 4.243 12.728 4.243 12.728s-8.042.444-12.728-4.243c-4.686-4.686-4.243-12.728-4.243-12.728s8.041-.443 12.728 4.243z" fill="#c1dbdc"/><path d="m117.807 226.5c-2.631 0-9.928-.477-14.877-5.43-5.785-5.785-5.463-14.77-5.408-15.777.113-2.035 1.738-3.66 3.773-3.77 1.006-.055 9.994-.379 15.775 5.406 5.785 5.785 5.463 14.77 5.408 15.777-.113 2.035-1.738 3.66-3.773 3.77-.144.008-.455.024-.898.024zm.677-4.016h.039zm-12.566-12.566c.42 1.934 1.217 4.043 2.668 5.496 1.451 1.449 3.562 2.25 5.496 2.668-.42-1.934-1.217-4.043-2.668-5.496-1.451-1.449-3.562-2.25-5.496-2.668z" fill="#4c241d"/><path d="m85.757 209.757c-4.686 4.686-4.243 12.728-4.243 12.728s8.042.444 12.728-4.243c4.686-4.686 4.243-12.728 4.243-12.728s-8.041-.443-12.728 4.243z" fill="#c1dbdc"/><path d="m82.193 226.5c-.443 0-.754-.016-.898-.023-2.035-.109-3.66-1.734-3.773-3.77-.055-1.008-.377-9.992 5.408-15.777 5.783-5.785 14.783-5.457 15.775-5.406 2.035.109 3.66 1.734 3.773 3.77.055 1.008.377 9.992-5.408 15.777-4.949 4.952-12.246 5.429-14.877 5.429zm11.889-16.582c-1.932.418-4.045 1.215-5.496 2.668-1.451 1.453-2.25 3.57-2.668 5.496 1.932-.418 4.045-1.215 5.496-2.668s2.25-3.57 2.668-5.496zm-8.324-.16h.039z" fill="#4c241d"/><circle cx="100" cy="150" fill="#4c241d" r="3.079"/></svg>