<svg id="iceberg" enable-background="new 0 0 300 300" height="512" viewBox="0 0 300 300" width="512" xmlns="http://www.w3.org/2000/svg"><path d="m115.012 126.448 38.943-77.885 22.253-11.126 27.816 11.126 36.787 76.472z" fill="#fff"/><path d="m115.012 130.448c-1.379 0-2.66-.709-3.391-1.879-.738-1.182-.812-2.662-.188-3.91l38.941-77.885c.387-.773 1.016-1.402 1.789-1.789l22.254-11.127c1.023-.51 2.219-.555 3.273-.137l27.816 11.127c.93.373 1.688 1.078 2.121 1.98l36.789 76.471c.594 1.232.516 2.682-.207 3.844s-1.984 1.875-3.352 1.891l-125.801 1.414c-.013 0-.029 0-.044 0zm41.922-78.904-35.414 70.83 112.965-1.27-33.391-69.404-24.703-9.883z" fill="#4c241d"/><path d="m54.253 126.448 11.747-41.011 43.949-24.811 25.316-5.063 46.735 29.874 12 40.553z" fill="#c1dbdc"/><path d="m54.254 130.448c-1.254 0-2.434-.588-3.191-1.588-.758-1.002-1-2.305-.652-3.514l11.746-41.012c.289-1.01.961-1.865 1.879-2.381l43.949-24.811c.367-.209.766-.357 1.18-.439l25.316-5.062c1.02-.207 2.07-.008 2.941.551l46.734 29.873c.809.52 1.406 1.312 1.68 2.236l12 40.553c.355 1.207.125 2.514-.629 3.523-.75 1.01-1.934 1.607-3.195 1.611l-139.746.459c-.004.001-.008.001-.012.001zm15.141-42.334-9.828 34.316 129.082-.424-10.059-34.003-44.121-28.201-23.109 4.621z" fill="#4c241d"/><path d="m54.253 125.437 15.747 52h24l5.822 14.291-5.822 29.709 31.138 5.987 5.064 30.596 30.379 10.199 37.419-49.894v-40.795l18.277-6.199 25.316-45.894z" fill="#e5efef"/><g fill="#4c241d"><path d="m160.582 272.22c-.426 0-.855-.068-1.273-.209l-30.379-10.197c-1.402-.473-2.43-1.68-2.672-3.139l-4.613-27.848-28.398-5.463c-1.047-.201-1.969-.809-2.562-1.689-.594-.883-.812-1.965-.609-3.008l5.59-28.537-4.355-10.693h-21.311c-1.762 0-3.316-1.154-3.828-2.84l-15.746-52c-.367-1.213-.137-2.527.617-3.543.754-1.018 1.945-1.617 3.211-1.617h187.34c1.414 0 2.727.748 3.445 1.967s.742 2.727.059 3.965l-25.316 45.895c-.484.873-1.273 1.535-2.219 1.855l-15.563 5.278v37.928c0 .865-.281 1.707-.801 2.4l-37.418 49.895c-.769 1.026-1.965 1.6-3.199 1.6zm-26.824-17.227 25.359 8.516 34.883-46.518v-39.461c0-1.715 1.094-3.238 2.715-3.787l16.809-5.701 21.297-38.605h-175.176l13.324 44h21.031c1.625 0 3.09.984 3.703 2.492l5.82 14.291c.297.721.371 1.512.223 2.277l-5.051 25.77 27.195 5.23c1.645.316 2.918 1.623 3.191 3.273z"/><path d="m160.586 165.892c-1.469 0-2.879-.809-3.582-2.211-.988-1.975-.188-4.379 1.789-5.367l10.125-5.064c.555-.277 1.168-.422 1.789-.422h13.98l14.18-9.453c1.844-1.229 4.32-.73 5.547 1.109 1.227 1.838.73 4.322-1.109 5.547l-15.188 10.125c-.656.438-1.43.672-2.219.672h-14.246l-9.281 4.643c-.574.286-1.183.421-1.785.421z"/><path d="m94.758 181.081c-1.023 0-2.047-.391-2.828-1.172-1.562-1.562-1.562-4.096 0-5.656l14.02-14.018v-13.533c0-2.209 1.789-4 4-4s4 1.791 4 4v15.189c0 1.061-.422 2.078-1.172 2.828l-15.191 15.189c-.782.782-1.806 1.173-2.829 1.173z"/><path d="m175.266 252.759c-.828 0-1.664-.258-2.383-.789l-14.688-10.92c-1.016-.756-1.613-1.945-1.613-3.211v-15.189c0-.43.07-.857.207-1.266l5.062-15.189c.699-2.094 2.945-3.23 5.059-2.529 2.094.699 3.227 2.965 2.527 5.061l-4.855 14.572v12.531l13.074 9.719c1.773 1.318 2.141 3.824.824 5.598-.785 1.053-1.992 1.612-3.214 1.612z"/><path d="m47.656 51.093c-1.023 0-2.047-.391-2.828-1.172l-11.312-11.313c-1.562-1.562-1.562-4.094 0-5.656s4.094-1.562 5.656 0l11.312 11.312c1.562 1.562 1.562 4.094 0 5.656-.781.782-1.804 1.173-2.828 1.173z"/><path d="m36.344 51.093c-1.023 0-2.047-.391-2.828-1.172-1.562-1.562-1.562-4.094 0-5.656l11.312-11.312c1.562-1.562 4.094-1.562 5.656 0s1.562 4.094 0 5.656l-11.312 11.312c-.781.781-1.805 1.172-2.828 1.172z"/><path d="m255.656 247.093c-1.023 0-2.047-.391-2.828-1.172l-11.312-11.312c-1.562-1.562-1.562-4.094 0-5.656s4.094-1.562 5.656 0l11.312 11.312c1.562 1.562 1.562 4.094 0 5.656-.781.781-1.804 1.172-2.828 1.172z"/><path d="m244.344 247.093c-1.023 0-2.047-.391-2.828-1.172-1.562-1.562-1.562-4.094 0-5.656l11.312-11.312c1.562-1.562 4.094-1.562 5.656 0s1.562 4.094 0 5.656l-11.312 11.312c-.781.781-1.805 1.172-2.828 1.172z"/><path d="m99.656 263.093c-1.023 0-2.047-.391-2.828-1.172l-11.312-11.312c-1.562-1.562-1.562-4.094 0-5.656s4.094-1.562 5.656 0l11.312 11.312c1.562 1.562 1.562 4.094 0 5.656-.781.781-1.804 1.172-2.828 1.172z"/><path d="m88.344 263.093c-1.023 0-2.047-.391-2.828-1.172-1.562-1.562-1.562-4.094 0-5.656l11.312-11.312c1.562-1.562 4.094-1.562 5.656 0s1.562 4.094 0 5.656l-11.312 11.312c-.781.781-1.805 1.172-2.828 1.172z"/><path d="m235.656 47.093c-1.023 0-2.047-.391-2.828-1.172l-11.312-11.312c-1.562-1.562-1.562-4.094 0-5.656s4.094-1.562 5.656 0l11.312 11.312c1.562 1.562 1.562 4.094 0 5.656-.781.781-1.804 1.172-2.828 1.172z"/><path d="m224.344 47.093c-1.023 0-2.047-.391-2.828-1.172-1.562-1.562-1.562-4.094 0-5.656l11.312-11.312c1.562-1.562 4.094-1.562 5.656 0s1.562 4.094 0 5.656l-11.312 11.312c-.781.781-1.805 1.172-2.828 1.172z"/><path d="m254 185.437c-6.617 0-12-5.383-12-12s5.383-12 12-12 12 5.383 12 12-5.383 12-12 12zm0-16c-2.207 0-4 1.795-4 4s1.793 4 4 4 4-1.795 4-4-1.793-4-4-4z"/><path d="m54 221.437c-6.617 0-12-5.383-12-12s5.383-12 12-12 12 5.383 12 12-5.383 12-12 12zm0-16c-2.207 0-4 1.795-4 4s1.793 4 4 4 4-1.795 4-4-1.793-4-4-4z"/><path d="m90 53.437c-6.617 0-12-5.383-12-12s5.383-12 12-12 12 5.383 12 12-5.383 12-12 12zm0-16c-2.207 0-4 1.795-4 4s1.793 4 4 4 4-1.795 4-4-1.793-4-4-4z"/><circle cx="254" cy="61.437" r="4.292"/><circle cx="222" cy="201.437" r="4.292"/><circle cx="210" cy="253.437" r="4.292"/><circle cx="46" cy="257.437" r="4.292"/><circle cx="34" cy="89.437" r="4.292"/><path d="m267.938 129.437h-235.876c-2.211 0-4-1.791-4-4s1.789-4 4-4h235.875c2.211 0 4 1.791 4 4s-1.789 4-3.999 4z"/><path d="m126.004 229.437c-.262 0-.523-.025-.789-.078-2.164-.434-3.57-2.541-3.137-4.707l3.73-18.654-7.387-14.771c-.988-1.977-.188-4.379 1.789-5.367 1.977-.984 4.375-.186 5.367 1.789l8 16c.398.795.52 1.701.344 2.574l-4 20c-.378 1.899-2.05 3.214-3.917 3.214z"/><path d="m134 85.437c-1.023 0-2.047-.391-2.828-1.172l-8-8c-1.219-1.217-1.52-3.076-.75-4.617l8-16c.992-1.977 3.387-2.777 5.367-1.789 1.977.988 2.777 3.391 1.789 5.367l-6.711 13.422 5.961 5.961c1.562 1.562 1.562 4.094 0 5.656-.781.781-1.805 1.172-2.828 1.172z"/><path d="m98 113.438c-1.676 0-3.234-1.061-3.793-2.736l-3.434-10.297-26.347-11.293c-2.031-.869-2.973-3.221-2.102-5.252.867-2.031 3.234-2.973 5.25-2.1l28 12c1.051.449 1.859 1.326 2.219 2.41l4 12c.699 2.096-.434 4.361-2.527 5.061-.422.141-.848.207-1.266.207z"/></g></svg>