<svg id="iglu1" enable-background="new 0 0 300 300" height="512" viewBox="0 0 300 300" width="512" xmlns="http://www.w3.org/2000/svg"><circle cx="160.945" cy="158.57" fill="#edebdc" r="92"/><path d="m212.945 262.57h-172v-87.693c0-17.843 14.465-32.307 32.307-32.307h116.828c12.628 0 22.864 10.237 22.864 22.864v97.136z" fill="#9dc1e4"/><path d="m212.945 266.57h-172c-2.211 0-4-1.791-4-4v-87.693c0-20.02 16.289-36.307 36.309-36.307h116.828c14.812 0 26.863 12.051 26.863 26.863v97.137c0 2.209-1.789 4-4 4zm-168-8h164v-93.137c0-10.4-8.461-18.863-18.863-18.863h-116.828c-15.609 0-28.309 12.699-28.309 28.307z" fill="#4c241d"/><path d="m196.945 226.57h-156c-2.211 0-4-1.791-4-4s1.789-4 4-4h156c2.211 0 4 1.791 4 4s-1.789 4-4 4z" fill="#4c241d"/><path d="m212.945 206.57h-172c-2.211 0-4-1.791-4-4s1.789-4 4-4h172c2.211 0 4 1.791 4 4s-1.789 4-4 4z" fill="#4c241d"/><path d="m212.945 186.57h-172c-2.211 0-4-1.791-4-4s1.789-4 4-4h172c2.211 0 4 1.791 4 4s-1.789 4-4 4z" fill="#4c241d"/><path d="m205.523 166.57h-157.156c-2.211 0-4-1.791-4-4s1.789-4 4-4h157.156c2.211 0 4 1.791 4 4s-1.789 4-4 4z" fill="#4c241d"/><path d="m212.945 170.57h-19.838c-8.926 0-16.162 7.236-16.162 16.162v3.838c0 6.627-5.373 12-12 12-6.627 0-12-5.373-12-12v-25.998c0-12.151-9.851-22.002-22.002-22.002-12.151 0-22.002 9.851-22.002 22.002v32c0 5.522-4.476 9.998-9.998 9.998-5.522 0-9.998-4.476-9.998-9.998v-6.002c0-6.627-5.373-12-12-12-6.627 0-12 5.373-12 12v24c0 6.627-5.373 12-12 12-6.627 0-12-5.373-12-12v-44c0-33.137 26.863-60 60-60h52c33.137 0 60 26.863 60 60z" fill="#fff"/><path d="m52.945 230.57c-8.824 0-16-7.178-16-16v-44c0-35.289 28.711-64 64-64h52c35.289 0 64 28.711 64 64 0 2.209-1.789 4-4 4h-19.836c-6.707 0-12.164 5.455-12.164 12.162v3.838c0 8.822-7.176 16-16 16s-16-7.178-16-16v-25.998c0-9.926-8.074-18.002-18-18.002s-18.004 8.076-18.004 18.002v32c0 7.719-6.277 13.998-13.996 13.998s-14-6.279-14-13.998v-6.002c0-4.412-3.59-8-8-8s-8 3.588-8 8v24c0 8.823-7.175 16-16 16zm48-116c-30.879 0-56 25.121-56 56v44c0 4.412 3.59 8 8 8s8-3.588 8-8v-24c0-8.822 7.176-16 16-16s16 7.178 16 16v6.002c0 3.307 2.691 5.998 6 5.998 3.305 0 5.996-2.691 5.996-5.998v-32c0-14.338 11.664-26.002 26.004-26.002 14.336 0 26 11.664 26 26.002v25.998c0 4.412 3.59 8 8 8s8-3.588 8-8v-3.838c0-11.117 9.047-20.162 20.164-20.162h15.695c-2.059-29.018-26.328-52-55.859-52z" fill="#4c241d"/><path d="m268.945 262.57h-72v-36c0-13.255 10.745-24 24-24h26.655c11.788 0 21.345 9.556 21.345 21.345z" fill="#9dc1e4"/><path d="m268.945 266.57h-72c-2.211 0-4-1.791-4-4v-36c0-15.439 12.562-28 28-28h26.656c13.973 0 25.344 11.369 25.344 25.344v38.656c0 2.209-1.789 4-4 4zm-68-8h64v-34.656c0-9.562-7.781-17.344-17.344-17.344h-26.656c-11.027 0-20 8.973-20 20z" fill="#4c241d"/><path d="m268.945 262.57h-48v-36c0-13.255 10.745-24 24-24 13.255 0 24 10.745 24 24z" fill="#e5efef"/><g fill="#4c241d"><path d="m268.945 266.57h-48c-2.211 0-4-1.791-4-4v-36c0-15.439 12.562-28 28-28s28 12.561 28 28v36c0 2.209-1.789 4-4 4zm-44-8h40v-32c0-11.027-8.973-20-20-20s-20 8.973-20 20z"/><path d="m232.945 266.57c-2.211 0-4-1.791-4-4v-22c0-9.314 4.613-17.992 12.344-23.215 1.824-1.236 4.32-.752 5.551 1.074 1.238 1.832.758 4.318-1.074 5.555-5.523 3.732-8.82 9.932-8.82 16.586v22c-.001 2.209-1.79 4-4.001 4z"/><path d="m196.945 246.57h-156c-2.211 0-4-1.791-4-4s1.789-4 4-4h156c2.211 0 4 1.791 4 4s-1.789 4-4 4z"/><path d="m76.945 266.57c-2.211 0-4-1.791-4-4v-20c0-2.209 1.789-4 4-4s4 1.791 4 4v20c0 2.209-1.789 4-4 4z"/><path d="m116.945 266.57c-2.211 0-4-1.791-4-4v-20c0-2.209 1.789-4 4-4s4 1.791 4 4v20c0 2.209-1.789 4-4 4z"/><path d="m160.945 266.57c-2.211 0-4-1.791-4-4v-20c0-2.209 1.789-4 4-4s4 1.791 4 4v20c0 2.209-1.789 4-4 4z"/><path d="m136.945 246.57c-2.211 0-4-1.791-4-4v-20c0-2.209 1.789-4 4-4s4 1.791 4 4v20c0 2.209-1.789 4-4 4z"/><path d="m180.945 246.57c-2.211 0-4-1.791-4-4v-20c0-2.209 1.789-4 4-4s4 1.791 4 4v20c0 2.209-1.789 4-4 4z"/><path d="m96.945 246.57c-2.211 0-4-1.791-4-4v-20c0-2.209 1.789-4 4-4s4 1.791 4 4v20c0 2.209-1.789 4-4 4z"/><path d="m80.945 226.57c-2.211 0-4-1.791-4-4v-20c0-2.209 1.789-4 4-4s4 1.791 4 4v20c0 2.209-1.789 4-4 4z"/><path d="m132.945 206.57c-2.211 0-4-1.791-4-4v-20c0-2.209 1.789-4 4-4s4 1.791 4 4v20c0 2.209-1.789 4-4 4z"/><path d="m120.945 186.57c-2.211 0-4-1.791-4-4v-20c0-2.209 1.789-4 4-4s4 1.791 4 4v20c0 2.209-1.789 4-4 4z"/><path d="m120.945 226.57c-2.211 0-4-1.791-4-4v-20c0-2.209 1.789-4 4-4s4 1.791 4 4v20c0 2.209-1.789 4-4 4z"/><path d="m160.945 226.57c-2.211 0-4-1.791-4-4v-20c0-2.209 1.789-4 4-4s4 1.791 4 4v20c0 2.209-1.789 4-4 4z"/><path d="m60.945 246.57c-2.211 0-4-1.791-4-4v-16c0-2.209 1.789-4 4-4s4 1.791 4 4v16c0 2.209-1.789 4-4 4z"/></g><path d="m93.07 63.293c-.707 0-1.392.088-2.065.204.471-1.717.746-3.514.746-5.377 0-11.427-9.452-20.691-21.112-20.691-10.854 0-19.785 8.031-20.969 18.358-.905-.157-1.831-.254-2.782-.254-8.745 0-15.834 6.948-15.834 15.518s7.089 15.519 15.834 15.519h46.182c6.559 0 11.875-5.211 11.875-11.639s-5.316-11.638-11.875-11.638z" fill="#fff"/><path d="m93.07 90.57h-46.183c-10.934 0-19.832-8.756-19.832-19.518 0-10.613 8.652-19.275 19.379-19.512 2.945-10.552 12.746-18.11 24.207-18.11 13.844 0 25.109 11.076 25.109 24.691 0 .461-.016.924-.043 1.389 7.504 1.24 13.238 7.684 13.238 15.422 0 8.623-7.121 15.638-15.875 15.638zm-46.183-31.035c-6.523 0-11.832 5.166-11.832 11.518s5.308 11.517 11.832 11.517h46.183c4.344 0 7.875-3.426 7.875-7.639s-3.531-7.639-7.875-7.639c-.473 0-.93.068-1.383.146-1.344.238-2.723-.238-3.645-1.254-.922-1.014-1.258-2.428-.895-3.748.398-1.455.602-2.906.602-4.316 0-9.203-7.676-16.691-17.109-16.691-8.723 0-16.031 6.369-17 14.814-.125 1.096-.695 2.09-1.578 2.75-.887.656-2.004.926-3.086.734-.675-.118-1.374-.192-2.089-.192z" fill="#4c241d"/><path d="m238.602 60.227c-1.023 0-2.047-.391-2.828-1.172l-11.312-11.312c-1.562-1.562-1.562-4.094 0-5.656s4.094-1.562 5.656 0l11.312 11.312c1.562 1.562 1.562 4.094 0 5.656-.782.781-1.805 1.172-2.828 1.172z" fill="#4c241d"/><path d="m227.289 60.227c-1.023 0-2.047-.391-2.828-1.172-1.562-1.562-1.562-4.094 0-5.656l11.312-11.312c1.562-1.562 4.094-1.562 5.656 0s1.562 4.094 0 5.656l-11.312 11.312c-.781.781-1.805 1.172-2.828 1.172z" fill="#4c241d"/><path d="m240.945 170.57c-6.617 0-12-5.383-12-12s5.383-12 12-12 12 5.383 12 12-5.383 12-12 12zm0-16c-2.207 0-4 1.795-4 4s1.793 4 4 4 4-1.795 4-4-1.793-4-4-4z" fill="#4c241d"/><path d="m140.945 74.57c-6.617 0-12-5.383-12-12s5.383-12 12-12 12 5.383 12 12-5.383 12-12 12zm0-16c-2.207 0-4 1.795-4 4s1.793 4 4 4 4-1.795 4-4-1.793-4-4-4z" fill="#4c241d"/><circle cx="188.945" cy="86.57" fill="#4c241d" r="4.292"/><circle cx="252.945" cy="98.57" fill="#4c241d" r="4.292"/></svg>