<svg id="polar_x5F_bear" enable-background="new 0 0 300 300" height="512" viewBox="0 0 300 300" width="512" xmlns="http://www.w3.org/2000/svg"><circle cx="161.848" cy="132" fill="#edebdc" r="92"/><path d="m190.989 189.556.288 20.025-3.787 5.565c-2.014 2.96-3.062 6.471-3 10.05l.017.98c.108 6.205 3.526 11.878 8.961 14.873 5.513 3.038 8.96 8.812 9.02 15.106l-28.159.405c-4.404.063-8.594-1.893-11.372-5.31-4.101-5.044-6.383-11.323-6.476-17.824l-.432-30.014z" fill="#e5efef"/><g fill="#4c241d"><path d="m174.11 260.561c-5.559 0-10.742-2.463-14.258-6.787-4.645-5.717-7.266-12.922-7.371-20.289l-.43-30.016c-.023-1.66.98-3.162 2.527-3.775l34.938-13.855c1.215-.479 2.602-.34 3.695.395 1.094.73 1.758 1.951 1.777 3.266l.289 20.025c.012.824-.23 1.631-.695 2.311l-3.789 5.564c-1.555 2.285-2.352 4.959-2.301 7.727l.016.986c.082 4.752 2.723 9.137 6.891 11.436 6.77 3.729 11.02 10.844 11.09 18.57.02 2.201-1.742 4.006-3.941 4.037l-28.16.404c-.095-.001-.185.001-.278.001zm-14.02-54.448.391 27.256c.078 5.576 2.062 11.029 5.582 15.357 2.016 2.48 4.914 3.936 8.207 3.832l23.578-.338c-1.035-3.221-3.266-5.99-6.309-7.668-6.672-3.678-10.895-10.693-11.031-18.307l-.016-.986c-.078-4.424 1.199-8.699 3.688-12.361l3.078-4.523-.184-12.963z"/><path d="m255.016 70.197c-1.016 0-2.031-.383-2.809-1.152l-11.391-11.238c-1.574-1.553-1.59-4.084-.039-5.656 1.551-1.574 4.09-1.59 5.656-.039l11.391 11.238c1.574 1.553 1.59 4.084.039 5.656-.781.793-1.816 1.191-2.847 1.191z"/><path d="m243.703 70.271c-1.016 0-2.031-.385-2.809-1.152-1.574-1.553-1.59-4.086-.039-5.658l11.238-11.387c1.559-1.574 4.09-1.584 5.656-.037 1.574 1.553 1.59 4.086.039 5.658l-11.238 11.387c-.784.793-1.815 1.189-2.847 1.189z"/><path d="m111.016 114.197c-1.016 0-2.031-.383-2.809-1.152l-11.391-11.238c-1.574-1.553-1.59-4.084-.039-5.656 1.551-1.574 4.09-1.59 5.656-.039l11.391 11.238c1.574 1.553 1.59 4.084.039 5.656-.781.793-1.816 1.191-2.847 1.191z"/><path d="m99.703 114.271c-1.016 0-2.031-.385-2.809-1.152-1.574-1.553-1.59-4.086-.039-5.658l11.238-11.387c1.559-1.574 4.09-1.584 5.656-.037 1.574 1.553 1.59 4.086.039 5.658l-11.238 11.387c-.784.793-1.815 1.189-2.847 1.189z"/><path d="m181.848 92c-6.578 0-11.953-5.33-12-11.92-.039-6.619 5.305-12.035 11.918-12.08h.082c6.578 0 11.953 5.33 12 11.92v.002c.039 6.617-5.305 12.033-11.918 12.078-.027 0-.055 0-.082 0zm0-16c-.012 0-.02 0-.027 0-2.203.014-3.988 1.822-3.973 4.027.016 2.195 1.809 3.973 4 3.973h.027c2.203-.014 3.988-1.822 3.973-4.027-.016-2.198-1.809-3.973-4-3.973z"/><path d="m257.848 232c-6.578 0-11.953-5.33-12-11.92-.039-6.619 5.305-12.035 11.918-12.08h.082c6.578 0 11.953 5.33 12 11.92v.002c.039 6.617-5.305 12.033-11.918 12.078-.028 0-.055 0-.082 0zm0-16c-.012 0-.02 0-.027 0-2.203.014-3.988 1.822-3.973 4.027.016 2.195 1.809 3.973 4 3.973h.027c2.203-.014 3.988-1.822 3.973-4.027-.016-2.198-1.809-3.973-4-3.973z"/><path d="m49.848 60c-6.578 0-11.953-5.33-12-11.92-.039-6.619 5.305-12.035 11.918-12.08h.082c6.578 0 11.953 5.33 12 11.92v.002c.039 6.617-5.305 12.033-11.918 12.078-.027 0-.055 0-.082 0zm0-16c-.012 0-.02 0-.027 0-2.203.014-3.988 1.822-3.973 4.027.016 2.195 1.809 3.973 4 3.973h.027c2.203-.014 3.988-1.822 3.973-4.027-.016-2.198-1.809-3.973-4-3.973z"/><circle cx="237.397" cy="107.599" r="4.292"/><circle cx="213.397" cy="219.599" r="4.292"/><circle cx="177.397" cy="123.599" r="4.292"/><circle cx="113.397" cy="51.599" r="4.292"/></g><path d="m47.415 210.811-10.651 8.521c-4.372 3.497-6.916 8.792-6.916 14.39v5.197c0 4.561 1.479 9 4.216 12.649 3.981 5.308 10.23 8.432 16.865 8.432h7.027v-15.583l10.541-9.012z" fill="#e5efef"/><path d="m57.957 264h-7.027c-7.848 0-15.352-3.75-20.066-10.029-3.234-4.32-5.016-9.664-5.016-15.053v-5.195c0-6.855 3.07-13.238 8.422-17.516l10.645-8.52c1.699-1.35 4.141-1.113 5.535.52l21.082 24.596c.691.807 1.035 1.854.953 2.912s-.582 2.041-1.391 2.732l-9.137 7.812v13.741c0 2.209-1.789 4-4 4zm-11.062-47.65-7.629 6.105c-3.445 2.752-5.418 6.857-5.418 11.268v5.195c0 3.67 1.215 7.311 3.418 10.252 3.207 4.275 8.316 6.83 13.664 6.83h3.027v-11.582c0-1.17.512-2.279 1.402-3.041l7.492-6.408z" fill="#4c241d"/><circle cx="45.397" cy="111.599" fill="#4c241d" r="4.292"/><path d="m110.659 213.666c0 6.185-5.014 11.199-11.198 11.199h-9.883l3.514 14.054c9.702 0 17.568 7.865 17.568 17.568h-19.583c-19.752 0-38.195-10.446-47.893-27.653-27.615-48.998 7.083-98.834 53.422-98.834 0 0 52.703-3.514 77.298 24.595l7.53-5.647c4.235-3.176 9.386-4.893 14.68-4.893h40.219c2.846 0 5.654.663 8.2 1.936l10.183 5.091 12.97 15.565c2.775 3.33 3.238 8.017 1.168 11.826-1.852 3.407-5.419 5.529-9.297 5.529h-25.708l-14.904 8.495c-4.168 2.779-9.066 4.262-14.075 4.262h-16.912l-49.189 45.676c7.762 0 14.054 6.292 14.054 14.054h-30.212c-4.66 0-8.437-3.777-8.437-8.437v-13.976c0-3.647 1.449-7.144 4.027-9.722l10.616-10.616c.625-.625.574-1.653-.11-2.213l-4.959-4.058c-5.234-4.283-13.089-.561-13.089 6.199z" fill="#fff"/><path d="m152.82 260.486h-30.21c-3.082 0-5.902-1.125-8.078-2.988-.449 1.719-2.012 2.988-3.871 2.988h-19.583c-21.371 0-41.059-11.375-51.379-29.688-13.395-23.768-13.832-49.803-1.195-71.432 12.027-20.581 34.289-33.366 58.102-33.366 1.898-.135 51.379-3.098 77.766 23.244l4.664-3.498c4.895-3.672 10.961-5.693 17.078-5.693h40.219c3.445 0 6.898.814 9.984 2.357l10.187 5.092c.492.248.93.594 1.285 1.018l12.969 15.564c3.848 4.617 4.48 11.016 1.609 16.297-2.555 4.699-7.465 7.619-12.812 7.619h-24.648l-13.98 7.969c-4.605 3.082-10.242 4.787-16.059 4.787h-15.34l-42.648 39.602c5.891 2.977 9.941 9.09 9.941 16.129-.001 2.208-1.79 3.999-4.001 3.999zm-34.121-58.849c2.707 0 5.375.928 7.582 2.732l4.957 4.057c1.203.984 1.934 2.436 2.008 3.98.078 1.547-.508 3.062-1.602 4.156l-10.617 10.617c-1.816 1.814-2.855 4.328-2.855 6.895v13.975c0 2.447 1.992 4.438 4.438 4.438h25.383c-1.551-3.561-5.102-6.055-9.227-6.055-1.645 0-3.121-1.008-3.723-2.537-.602-1.531-.203-3.275 1-4.395l49.191-45.676c.742-.688 1.715-1.068 2.723-1.068h16.91c4.234 0 8.336-1.242 11.859-3.59l15.141-8.641c.602-.344 1.285-.525 1.98-.525h25.707c2.414 0 4.629-1.318 5.781-3.439 1.297-2.385 1.012-5.271-.727-7.355l-12.434-14.922-9.434-4.717c-1.98-.99-4.199-1.514-6.41-1.514h-40.219c-4.398 0-8.758 1.455-12.281 4.094l-7.531 5.648c-1.676 1.256-4.031 1-5.41-.566-22.98-26.266-73.523-23.273-74.02-23.236-21.246.008-40.863 11.273-51.457 29.41-11.168 19.109-10.707 42.242 1.254 63.467 8.906 15.801 25.922 25.617 44.41 25.617h14.98c-1.711-5.535-6.879-9.568-12.969-9.568-1.836 0-3.438-1.25-3.879-3.029l-3.512-14.053c-.301-1.195-.031-2.461.727-3.432s1.922-1.539 3.152-1.539h9.883c3.969 0 7.199-3.23 7.199-7.199 0-4.689 2.633-8.85 6.871-10.855 1.664-.789 3.425-1.175 5.171-1.175zm-22.425 33.515c5.633.836 10.566 3.861 13.898 8.178v-9.256c0-4.74 1.848-9.199 5.199-12.551l8.66-8.66-2.816-2.303c-1.824-1.49-3.723-.779-4.262-.521-.535.256-2.293 1.271-2.293 3.627 0 8.381-6.816 15.199-15.199 15.199h-4.762z" fill="#4c241d"/><path d="m230.117 158.594c-1.023 0-2.047-.391-2.828-1.172l-3.512-3.514c-.75-.75-1.172-1.768-1.172-2.828v-10.539c0-2.209 1.789-4 4-4s4 1.791 4 4v8.883l2.34 2.342c1.562 1.562 1.562 4.096 0 5.658-.781.779-1.804 1.17-2.828 1.17z" fill="#4c241d"/></svg>