<svg enable-background="new 0 0 24 24" height="512" viewBox="0 0 24 24" width="512" xmlns="http://www.w3.org/2000/svg"><path d="m21.5 24h-19c-1.379 0-2.5-1.122-2.5-2.5v-19c0-1.378 1.121-2.5 2.5-2.5h19c1.379 0 2.5 1.122 2.5 2.5v19c0 1.378-1.121 2.5-2.5 2.5zm-19-23c-.827 0-1.5.673-1.5 1.5v19c0 .827.673 1.5 1.5 1.5h19c.827 0 1.5-.673 1.5-1.5v-19c0-.827-.673-1.5-1.5-1.5z"/><path d="m14.5 17c-.085 0-.169-.021-.245-.064l-8-4.5c-.157-.089-.255-.255-.255-.436s.098-.347.255-.436l8-4.5c.153-.087.344-.086.497.004s.248.254.248.432v9c0 .178-.095.342-.248.432-.077.045-.165.068-.252.068zm-6.98-5 6.48 3.645v-7.29z"/></svg>