<svg enable-background="new 0 0 24 24" height="512" viewBox="0 0 24 24" width="512" xmlns="http://www.w3.org/2000/svg"><path d="m21.5 24h-19c-1.378 0-2.5-1.122-2.5-2.5v-19c0-1.378 1.122-2.5 2.5-2.5h19c1.378 0 2.5 1.122 2.5 2.5v19c0 1.378-1.122 2.5-2.5 2.5zm-19-23c-.827 0-1.5.673-1.5 1.5v19c0 .827.673 1.5 1.5 1.5h19c.827 0 1.5-.673 1.5-1.5v-19c0-.827-.673-1.5-1.5-1.5z"/><path d="m8.5 17c-.087 0-.174-.023-.252-.068-.154-.09-.248-.254-.248-.432v-9c0-.178.094-.342.248-.432.153-.089.342-.091.497-.004l8 4.5c.157.089.255.255.255.436s-.098.347-.255.436l-8 4.5c-.076.043-.161.064-.245.064zm.5-8.645v7.29l6.48-3.645z"/></svg>