<svg enable-background="new 0 0 24 24" height="512" viewBox="0 0 24 24" width="512" xmlns="http://www.w3.org/2000/svg"><path d="m21.5 24h-19c-1.378 0-2.5-1.122-2.5-2.5v-19c0-1.378 1.122-2.5 2.5-2.5h19c1.378 0 2.5 1.122 2.5 2.5v19c0 1.378-1.122 2.5-2.5 2.5zm-19-23c-.827 0-1.5.673-1.5 1.5v19c0 .827.673 1.5 1.5 1.5h19c.827 0 1.5-.673 1.5-1.5v-19c0-.827-.673-1.5-1.5-1.5z"/><path d="m16.5 16h-9c-.178 0-.342-.094-.432-.248s-.091-.343-.004-.498l4.5-8c.177-.314.694-.314.871 0l4.5 8c.087.155.086.344-.004.498s-.253.248-.431.248zm-8.145-1h7.29l-3.645-6.48z"/></svg>